<svg width="24" height="24" viewBox="0 0 24 24" fill="none" xmlns="http://www.w3.org/2000/svg">
<path d="M10.165 6.95427L9.22046 6.00953L12.0001 0.799988L10.165 6.95427Z" fill="#010101"/>
<path d="M11.9999 0.799988L10.1648 6.95427L11.9999 8.78975L13.835 6.95427L11.9999 0.799988Z" fill="#333333"/>
<path d="M13.8351 6.95427L14.7796 6.00953L12 0.799988L13.8351 6.95427Z" fill="#4E4E4E"/>
<path d="M0 23.2937H5.28036L10.003 7.47613L8.9865 6.45941L0 23.2937Z" fill="#CE5E05"/>
<path d="M13.9969 7.47614L11.9999 9.47358L10.0029 7.47614L5.28027 23.2937H6.68357L9.05838 19.4068L11.9999 23.2937L14.9414 19.4068L17.3162 23.2937H18.7285L13.9969 7.47614Z" fill="#DC6D01"/>
<path d="M24.0001 23.2937H18.7287L13.9971 7.47613L15.0226 6.45941L24.0001 23.2937Z" fill="#EB8B01"/>
</svg>
